<svg id="Warstwa_1" data-name="Warstwa 1" xmlns="http://www.w3.org/2000/svg" xmlns:xlink="http://www.w3.org/1999/xlink" viewBox="0 0 365.45 365.38"><defs><style>.cls-1{fill:none;}.cls-2{clip-path:url(#clip-path);}.cls-3{fill:#ff6347;}.cls-4{clip-path:url(#clip-path-2);}</style><clipPath id="clip-path" transform="translate(-1.23 0)"><rect class="cls-1" x="-19" y="-15.21" width="418" height="150"/></clipPath><clipPath id="clip-path-2" transform="translate(-1.23 0)"><rect class="cls-1" x="-30" y="222.65" width="429" height="169.14"/></clipPath></defs><g id="Capa_1" data-name="Capa 1"><g class="cls-2"><path class="cls-3" d="M358.29,315.38l-.33-.33-14.08-13.76L318.2,275.45l-19-19L316,239.53a8,8,0,0,0,0-11.28L297.8,210a8,8,0,0,0-11.28,0L280,216.57l-27-30.16L359.88,90.73a8,8,0,0,0,2.64-5.6l3.84-76.72A8,8,0,0,0,358.79,0H358L281.24,3.77a8,8,0,0,0-5.6,2.64L183.88,109.29,92,6.65A8,8,0,0,0,86.4,4L9.64.25a8,8,0,0,0-8.4,7.58h0v.82L5.08,85.37A8,8,0,0,0,7.72,91l107,96L87.88,216.65l-6.56-6.56a8,8,0,0,0-11.28,0L51.8,228.33a8,8,0,0,0,0,11.28l16.88,16.88-19.12,19-40,40A29.33,29.33,0,0,0,51,357l58.72-58.72,16.88,16.88a8,8,0,0,0,11.28,0l18.24-18.23a8,8,0,0,0,0-11.28l-6.24-7,34-30.32,34,30.32-6.56,6.56a8,8,0,0,0,0,11.28l18.24,18.24a8,8,0,0,0,11.28,0l16.88-16.8,19,19,25.76,25.76,13.92,13.92a29.36,29.36,0,0,0,41.85-41.19ZM268.44,227.9,254.36,242l-30.08-30.1,16.56-14.8Zm-248-147-3.2-64.56,64.56,3.2,90.88,101.6L154.12,141.9l-33.6-33.6a8,8,0,0,0-11.28,11.28l34.64,34.32-18.4,20.72Zm19.12,264a13.33,13.33,0,0,1-9.44,4,13.35,13.35,0,0,1-9-22.24l8-8,18.72,18.48Zm19.52-19.52L40.68,306.9l14.48-14.48L74,311.37Zm25.84-25.84L66,280.73l13.84-13,18.88,18.88Zm47.2-2.16-16.8-16.8L85.16,250.49,68.68,233.9l6.88-6.9,64,64Zm6-30.48L124,252.9,257.6,119.3a8,8,0,0,0-10.41-12.15,8.93,8.93,0,0,0-.87.87l-133.6,133.6-14-14.09,32.8-36.63,154-171.21,64.56-3.2-3.2,64.56L236.36,179.9Zm57.28-29.84,17.2-14.48,30.64,30.64L229.16,267.3Zm56,43.44-16.24,17.4-6.88-6.9,64-64,6.88,6.88-16.88,16.88Zm17,5.68,19.52-18.48,13.36,13.36L282.4,299.94Zm39.2,39.2L293.12,310.9,312,292.09l14.48,14.48Zm39,19.92-.64-.4a13.68,13.68,0,0,1-18.88,0l-8-8,19.28-18.32,8,8a13.36,13.36,0,0,1,.24,18.79Z" transform="translate(-1.23 0)"/></g></g><g id="Warstwa_4" data-name="Warstwa 4"><g class="cls-4"><path class="cls-3" d="M358.29,315.38l-.33-.33-14.08-13.76L318.2,275.45l-19-19L316,239.53a8,8,0,0,0,0-11.28L297.8,210a8,8,0,0,0-11.28,0L280,216.57l-27-30.16L359.88,90.73a8,8,0,0,0,2.64-5.6l3.84-76.72A8,8,0,0,0,358.79,0H358L281.24,3.77a8,8,0,0,0-5.6,2.64L183.88,109.29,92,6.65A8,8,0,0,0,86.4,4L9.64.25a8,8,0,0,0-8.4,7.58h0v.82L5.08,85.37A8,8,0,0,0,7.72,91l107,96L87.88,216.65l-6.56-6.56a8,8,0,0,0-11.28,0L51.8,228.33a8,8,0,0,0,0,11.28l16.88,16.88-19.12,19-40,40A29.33,29.33,0,0,0,51,357l58.72-58.72,16.88,16.88a8,8,0,0,0,11.28,0l18.24-18.23a8,8,0,0,0,0-11.28l-6.24-7,34-30.32,34,30.32-6.56,6.56a8,8,0,0,0,0,11.28l18.24,18.24a8,8,0,0,0,11.28,0l16.88-16.8,19,19,25.76,25.76,13.92,13.92a29.36,29.36,0,0,0,41.85-41.19ZM268.44,227.9,254.36,242l-30.08-30.1,16.56-14.8Zm-248-147-3.2-64.56,64.56,3.2,90.88,101.6L154.12,141.9l-33.6-33.6a8,8,0,0,0-11.28,11.28l34.64,34.32-18.4,20.72Zm19.12,264a13.33,13.33,0,0,1-9.44,4,13.36,13.36,0,0,1-9-22.24l8-8,18.72,18.48Zm19.52-19.52L40.68,306.9l14.48-14.48L74,311.37Zm25.84-25.84L66,280.73l13.84-13,18.88,18.88Zm47.2-2.16-16.8-16.8L85.16,250.49,68.68,233.9l6.88-6.9,64,64Zm6-30.48L124,252.9,257.6,119.3a8,8,0,0,0-10.41-12.15,8.93,8.93,0,0,0-.87.87l-133.6,133.6-14-14.09,32.8-36.63,154-171.21,64.56-3.2-3.2,64.56L236.36,179.9Zm57.28-29.84,17.2-14.48,30.64,30.64L229.16,267.3Zm56,43.44-16.24,17.4-6.88-6.9,64-64,6.88,6.88-16.88,16.88Zm17,5.68,19.52-18.48,13.36,13.36L282.4,299.94Zm39.2,39.2L293.12,310.9,312,292.09l14.48,14.48Zm39,19.92-.64-.4a13.68,13.68,0,0,1-18.88,0l-8-8,19.28-18.32,8,8a13.36,13.36,0,0,1,.24,18.79Z" transform="translate(-1.23 0)"/></g></g><path class="cls-3" d="M44.65,197.65a34.15,34.15,0,0,1,2.82,9.71,38.86,38.86,0,0,1-7.76,2.08,52.31,52.31,0,0,1-7.43.5,31,31,0,0,1-12.37-2.29A24.63,24.63,0,0,1,11,201.26a27.33,27.33,0,0,1-5.44-9.75,39.92,39.92,0,0,1-1.82-12.28A38.31,38.31,0,0,1,5.64,166.9a28.54,28.54,0,0,1,5.52-9.83A24.78,24.78,0,0,1,20,150.59a29.41,29.41,0,0,1,12-2.32,49.19,49.19,0,0,1,7.35.5,32,32,0,0,1,7.26,2.07,18.44,18.44,0,0,1-1,4.86q-.82,2.36-1.82,4.77a36.77,36.77,0,0,0-5.15-1.41,29.23,29.23,0,0,0-5.31-.42q-8,0-12.24,5.19t-4.28,15.4q0,20.25,17.18,20.25a30.68,30.68,0,0,0,5.4-.42A34.26,34.26,0,0,0,44.65,197.65Z" transform="translate(-1.23 0)"/><path class="cls-3" d="M78.34,209.94a26.89,26.89,0,0,1-11.62-2.33,21.78,21.78,0,0,1-8-6.43A28,28,0,0,1,54,191.47a46.41,46.41,0,0,1-1.53-12.24A47.32,47.32,0,0,1,54,166.9a28.29,28.29,0,0,1,4.69-9.83,21.61,21.61,0,0,1,8-6.48,26.89,26.89,0,0,1,11.62-2.32A26.83,26.83,0,0,1,90,150.59,21.56,21.56,0,0,1,98,157.07a28.1,28.1,0,0,1,4.68,9.83,46.89,46.89,0,0,1,1.54,12.33,46,46,0,0,1-1.54,12.24A27.85,27.85,0,0,1,98,201.18,21.74,21.74,0,0,1,90,207.61,26.82,26.82,0,0,1,78.34,209.94Zm0-10.13q12.87,0,12.87-20.58,0-10.29-3.11-15.44t-9.67-5.15q-13,0-13,20.59T78.34,199.81Z" transform="translate(-1.23 0)"/><path class="cls-3" d="M115.94,149.26a43.46,43.46,0,0,1,6.39-.49,41.32,41.32,0,0,1,6.4.49l13.69,34.2,14.11-34.2a30.38,30.38,0,0,1,5.73-.49,36.1,36.1,0,0,1,6.06.49l2.82,59.68a38.78,38.78,0,0,1-6,.5,31.24,31.24,0,0,1-5.56-.5l-1.49-40.5L146,196.49c-.78.11-1.58.21-2.41.29s-1.66.13-2.49.13-1.44,0-2.16-.09a15.55,15.55,0,0,1-2.24-.33L125.4,167.86l-1.16,41.08a28,28,0,0,1-5.14.5,31.73,31.73,0,0,1-5.48-.5Z" transform="translate(-1.23 0)"/><path class="cls-3" d="M182.09,149q3.82-.35,7.72-.54t7.89-.21a44.4,44.4,0,0,1,8.42.83,21.09,21.09,0,0,1,7.72,3.11,16.94,16.94,0,0,1,5.6,6.35,22.43,22.43,0,0,1,2.16,10.54,22.15,22.15,0,0,1-2.16,10.5,17.51,17.51,0,0,1-5.56,6.35,20.25,20.25,0,0,1-7.59,3.15,42,42,0,0,1-8.26.83c-.72,0-1.4,0-2,0s-1.24-.07-1.79-.12v19.17a27.9,27.9,0,0,1-3.07.33c-1,.06-2,.09-2.9.09s-1.86,0-2.91-.09a31.22,31.22,0,0,1-3.24-.33Zm12.12,30.7a10.56,10.56,0,0,0,1.87.17h2.12a15.45,15.45,0,0,0,4.06-.54,9.42,9.42,0,0,0,3.53-1.78,8.85,8.85,0,0,0,2.45-3.28,12.24,12.24,0,0,0,.91-5,13.07,13.07,0,0,0-.91-5.19,8.8,8.8,0,0,0-6-5.23,15.45,15.45,0,0,0-4.06-.54c-.61,0-1.18,0-1.71,0s-1.28.1-2.28.21Z" transform="translate(-1.23 0)"/><path class="cls-3" d="M239.36,149.26c1.17-.16,2.27-.29,3.32-.37s2.22-.12,3.49-.12c1.11,0,2.18,0,3.24.12s2.21.21,3.48.37l18.68,59.68a46.23,46.23,0,0,1-6.64.5,37.41,37.41,0,0,1-6.14-.5L255.47,197H235.71l-3.4,11.95a35.06,35.06,0,0,1-5.73.5,37,37,0,0,1-6.06-.5ZM252.64,187l-6.89-25.07L238.53,187Z" transform="translate(-1.23 0)"/><path class="cls-3" d="M278.87,149.26c2.43-.27,4.72-.51,6.85-.7s4.49-.29,7.09-.29a49.19,49.19,0,0,1,9,.83,24.27,24.27,0,0,1,8,2.94,16.66,16.66,0,0,1,5.77,5.73,17.46,17.46,0,0,1,2.2,9.17,18.81,18.81,0,0,1-.83,5.85,17.95,17.95,0,0,1-4.9,7.72,19.52,19.52,0,0,1-2.82,2.2l-1.41.92,14.52,25.23-3.48.33c-1.22.11-2.47.17-3.74.17a39,39,0,0,1-6.22-.5l-15.61-27.72,2-1c.78-.39,1.72-.88,2.83-1.49a17.27,17.27,0,0,0,3.19-2.29,12.38,12.38,0,0,0,2.62-3.32,9.34,9.34,0,0,0,1.08-4.6q0-5.24-3-7.68a11.8,11.8,0,0,0-7.72-2.45,19.77,19.77,0,0,0-3.32.25v50.38c-1,.11-2,.21-3,.29s-2,.13-2.9.13-1.94,0-3-.09a31.22,31.22,0,0,1-3.24-.33Z" transform="translate(-1.23 0)"/><path class="cls-3" d="M329,149.26h33.87a25.94,25.94,0,0,1,.49,5.07,26.83,26.83,0,0,1-.49,5.23H341.12V172.5h17.26a27.35,27.35,0,0,1,.5,5.15,26.87,26.87,0,0,1-.5,5.23H341.12v15.77h22.33a25.91,25.91,0,0,1,.49,5.06,26.76,26.76,0,0,1-.49,5.23H329Z" transform="translate(-1.23 0)"/></svg>