<svg id="Warstwa_1" data-name="Warstwa 1" xmlns="http://www.w3.org/2000/svg" xmlns:xlink="http://www.w3.org/1999/xlink" viewBox="0 0 367.85 365.34"><defs><style>.cls-1{fill:none;}.cls-2{clip-path:url(#clip-path);}.cls-3,.cls-5{fill:#ff6347;}.cls-4{clip-path:url(#clip-path-2);}.cls-5{font-size:83px;font-family:Aller-Bold, Aller;font-weight:700;}.cls-6{letter-spacing:-0.03em;}.cls-7{letter-spacing:-0.06em;}</style><clipPath id="clip-path" transform="translate(1 0)"><rect class="cls-1" x="-20" y="-15.21" width="418" height="150"/></clipPath><clipPath id="clip-path-2" transform="translate(1 0)"><rect class="cls-1" x="-31" y="222.65" width="429" height="169.14"/></clipPath></defs><g id="Capa_1" data-name="Capa 1"><g class="cls-2"><path class="cls-3" d="M357.29,315.38l-.33-.33-14.08-13.76L317.2,275.45l-19-19L315,239.53a8,8,0,0,0,0-11.28L296.8,210a8,8,0,0,0-11.28,0L279,216.57l-27-30.16L358.88,90.73a8,8,0,0,0,2.64-5.6l3.84-76.72A8,8,0,0,0,357.78,0H357L280.24,3.77a8,8,0,0,0-5.6,2.64L182.88,109.29,91,6.65A8,8,0,0,0,85.4,4L8.64.25A8,8,0,0,0,.24,7.83c0,.27,0,.55,0,.82L4.08,85.37A8,8,0,0,0,6.72,91l107,96L86.88,216.65l-6.56-6.56a8,8,0,0,0-11.28,0L50.8,228.33a8,8,0,0,0,0,11.28l16.88,16.88-19.12,19-40,40A29.33,29.33,0,0,0,50,357l58.72-58.72,16.88,16.88a8,8,0,0,0,11.28,0l18.24-18.23a8,8,0,0,0,0-11.28l-6.24-7,34-30.32,34,30.32-6.56,6.56a8,8,0,0,0,0,11.28l18.24,18.24a8,8,0,0,0,11.28,0l16.88-16.8,19,19,25.76,25.76,13.92,13.92a29.36,29.36,0,0,0,41.85-41.19ZM267.44,227.9,253.36,242,223.28,211.9l16.56-14.8Zm-248-147-3.2-64.56,64.56,3.2,90.88,101.6L153.12,141.9l-33.6-33.6a8,8,0,0,0-11.28,11.28l34.64,34.32-18.4,20.72Zm19.12,264a13.33,13.33,0,0,1-9.44,4,13.35,13.35,0,0,1-9-22.24l8-8,18.72,18.48Zm19.52-19.52L39.68,306.9l14.48-14.48L73,311.37Zm25.84-25.84L65,280.73l13.84-13,18.88,18.88Zm47.2-2.16-16.8-16.8L84.16,250.49,67.68,233.9,74.56,227l64,64Zm6-30.48L123,252.9,256.6,119.3a8,8,0,0,0-10.41-12.15,8.93,8.93,0,0,0-.87.87l-133.6,133.6-14-14.09,32.8-36.63L284.56,19.69l64.56-3.2-3.2,64.56L235.36,179.9Zm57.28-29.84,17.2-14.48,30.64,30.64L228.16,267.3Zm56,43.44-16.24,17.4L227.28,291l64-64,6.88,6.88-16.88,16.88Zm17,5.68,19.52-18.48,13.36,13.36L281.4,299.94Zm39.2,39.2L292.12,310.9,311,292.09l14.48,14.48Zm39,19.92-.64-.4a13.68,13.68,0,0,1-18.88,0l-8-8,19.28-18.32,8,8a13.36,13.36,0,0,1,.24,18.79Z" transform="translate(1 0)"/></g></g><g id="Warstwa_4" data-name="Warstwa 4"><g class="cls-4"><path class="cls-3" d="M357.29,315.38l-.33-.33-14.08-13.76L317.2,275.45l-19-19L315,239.53a8,8,0,0,0,0-11.28L296.8,210a8,8,0,0,0-11.28,0L279,216.57l-27-30.16L358.88,90.73a8,8,0,0,0,2.64-5.6l3.84-76.72A8,8,0,0,0,357.78,0H357L280.24,3.77a8,8,0,0,0-5.6,2.64L182.88,109.29,91,6.65A8,8,0,0,0,85.4,4L8.64.25A8,8,0,0,0,.24,7.83c0,.27,0,.55,0,.82L4.08,85.37A8,8,0,0,0,6.72,91l107,96L86.88,216.65l-6.56-6.56a8,8,0,0,0-11.28,0L50.8,228.33a8,8,0,0,0,0,11.28l16.88,16.88-19.12,19-40,40A29.33,29.33,0,0,0,50,357l58.72-58.72,16.88,16.88a8,8,0,0,0,11.28,0l18.24-18.23a8,8,0,0,0,0-11.28l-6.24-7,34-30.32,34,30.32-6.56,6.56a8,8,0,0,0,0,11.28l18.24,18.24a8,8,0,0,0,11.28,0l16.88-16.8,19,19,25.76,25.76,13.92,13.92a29.36,29.36,0,0,0,41.85-41.19ZM267.44,227.9,253.36,242,223.28,211.9l16.56-14.8Zm-248-147-3.2-64.56,64.56,3.2,90.88,101.6L153.12,141.9l-33.6-33.6a8,8,0,0,0-11.28,11.28l34.64,34.32-18.4,20.72Zm19.12,264a13.33,13.33,0,0,1-9.44,4,13.36,13.36,0,0,1-9-22.24l8-8,18.72,18.48Zm19.52-19.52L39.68,306.9l14.48-14.48L73,311.37Zm25.84-25.84L65,280.73l13.84-13,18.88,18.88Zm47.2-2.16-16.8-16.8L84.16,250.49,67.68,233.9,74.56,227l64,64Zm6-30.48L123,252.9,256.6,119.3a8,8,0,0,0-10.41-12.15,8.93,8.93,0,0,0-.87.87l-133.6,133.6-14-14.09,32.8-36.63L284.56,19.69l64.56-3.2-3.2,64.56L235.36,179.9Zm57.28-29.84,17.2-14.48,30.64,30.64L228.16,267.3Zm56,43.44-16.24,17.4L227.28,291l64-64,6.88,6.88-16.88,16.88Zm17,5.68,19.52-18.48,13.36,13.36L281.4,299.94Zm39.2,39.2L292.12,310.9,311,292.09l14.48,14.48Zm39,19.92-.64-.4a13.68,13.68,0,0,1-18.88,0l-8-8,19.28-18.32,8,8a13.36,13.36,0,0,1,.24,18.79Z" transform="translate(1 0)"/></g></g><text class="cls-5" transform="translate(0 209.15)"><tspan class="cls-6">C</tspan><tspan x="48.8" y="0">OM</tspan><tspan class="cls-7" x="176.87" y="0">P</tspan><tspan x="220.28" y="0">ARE</tspan></text></svg>