<?xml version="1.0" encoding="utf-8"?>
<!-- Generator: Adobe Illustrator 25.2.1, SVG Export Plug-In . SVG Version: 6.00 Build 0)  -->
<svg version="1.1" xmlns="http://www.w3.org/2000/svg" xmlns:xlink="http://www.w3.org/1999/xlink" x="0px" y="0px"
	 viewBox="0 0 365.7 365.7" style="enable-background:new 0 0 365.7 365.7;" xml:space="preserve">
<style type="text/css">
	.st0{clip-path:url(#SVGID_2_);}
	.st1{fill:#FFFFFF;}
	.st2{clip-path:url(#SVGID_4_);}
	.st3{font-family:'BebasNeue-Regular';}
	.st4{font-size:96px;}
</style>
<g id="Capa_1">
	<defs>
		<rect id="SVGID_1_" x="-20" y="-15.1" width="418" height="150"/>
	</defs>
	<clipPath id="SVGID_2_">
		<use xlink:href="#SVGID_1_"  style="overflow:visible;"/>
	</clipPath>
	<g class="st0">
		<g>
			<path class="st1" d="M357.3,315.5c-0.1-0.1-0.2-0.2-0.3-0.3l-14.1-13.8l-25.7-25.8l-19-19l16.9-16.9c3.1-3.1,3.1-8.2,0-11.3
				l-18.2-18.2c-3.1-3.1-8.2-3.1-11.3,0l-6.6,6.6l-27-30.2l106.9-95.7c1.6-1.4,2.5-3.5,2.6-5.6l3.8-76.7c0.1-2.3-0.7-4.5-2.3-6.1
				c-1.6-1.6-3.8-2.4-6.1-2.3l-76.7,3.8c-2.1,0.1-4.2,1-5.6,2.6l-91.8,102.9L91,6.7c-1.4-1.6-3.5-2.5-5.6-2.6L8.6,0.3
				C6.4,0.2,4.2,1.1,2.6,2.7C1,4.3,0.1,6.5,0.2,8.7l3.8,76.7c0.1,2.1,1,4.2,2.6,5.6l107,96l-26.9,29.7l-6.6-6.6
				c-3.1-3.1-8.2-3.1-11.3,0l-18.2,18.2c-3.1,3.1-3.1,8.2,0,11.3l16.9,16.9l-19.1,19l-40,40C-2.9,327-2.8,345.6,8.6,357.1
				c5.5,5.5,12.9,8.5,20.6,8.6c7.8,0,15.2-3.1,20.7-8.6l58.7-58.7l16.9,16.9c3.1,3.1,8.2,3.1,11.3,0l18.2-18.2
				c3.1-3.1,3.1-8.2,0-11.3l-6.2-7l34-30.3l34,30.3l-6.6,6.6c-3.1,3.1-3.1,8.2,0,11.3l18.2,18.2c3.1,3.1,8.2,3.1,11.3,0l16.9-16.9
				l19,19l25.8,25.8l13.9,13.9c11.4,11.6,30,11.7,41.5,0.3C368.5,345.6,368.7,327,357.3,315.5z M267.4,228l-14.1,14.1L223.3,212
				l16.6-14.8L267.4,228z M19.4,81.1l-3.2-64.6l64.6,3.2l90.9,101.6L153.1,142l-33.6-33.6c-3.4-2.9-8.4-2.5-11.3,0.9
				c-2.6,3-2.6,7.4,0,10.4l34.6,34.3l-18.4,20.7L19.4,81.1z M38.6,345.1c-2.5,2.5-5.9,3.9-9.4,3.9c-7.4-0.5-12.9-7-12.3-14.3
				c0.2-2.9,1.4-5.7,3.4-7.9l8-8l18.7,18.5L38.6,345.1z M58.1,325.5l-18.4-18.5l14.5-14.5L73,311.5L58.1,325.5z M83.9,299.7
				L65,280.8l13.8-13l18.9,18.9L83.9,299.7z M131.1,297.5l-16.8-16.8l-30.2-30.2L67.7,234l6.9-6.9l64,64L131.1,297.5z M137.1,267.1
				L123,253l133.6-133.6c3.4-2.9,3.7-7.9,0.9-11.3c-2.9-3.4-7.9-3.7-11.3-0.9c-0.3,0.3-0.6,0.6-0.9,0.9L111.8,241.7l-14.1-14.1
				l32.8-36.6L284.6,19.8l64.6-3.2l-3.2,64.6l-110.6,98.8L137.1,267.1z M194.4,237.2l17.2-14.5l30.6,30.6l-14.1,14.1L194.4,237.2z
				 M250.4,280.7l-16.2,17.3l-6.9-6.9l64-64l6.9,6.9l-16.9,16.9L250.4,280.7z M267.4,286.3l19.5-18.5l13.4,13.4l-18.9,18.9
				L267.4,286.3z M306.6,325.5l-14.5-14.5l18.9-18.9l14.5,14.5L306.6,325.5z M345.6,345.5l-0.6-0.4c-5.3,5-13.6,5-18.9,0l-8-8
				l19.3-18.3l8,8C350.5,331.9,350.6,340.2,345.6,345.5z"/>
		</g>
	</g>
</g>
<g id="Warstwa_4">
	<defs>
		<rect id="SVGID_3_" x="-31" y="222.7" width="429" height="169.1"/>
	</defs>
	<clipPath id="SVGID_4_">
		<use xlink:href="#SVGID_3_"  style="overflow:visible;"/>
	</clipPath>
	<g class="st2">
		<g>
			<path class="st1" d="M357.3,315.5c-0.1-0.1-0.2-0.2-0.3-0.3l-14.1-13.8l-25.7-25.8l-19-19l16.9-16.9c3.1-3.1,3.1-8.2,0-11.3
				l-18.2-18.2c-3.1-3.1-8.2-3.1-11.3,0l-6.6,6.6l-27-30.2l106.9-95.7c1.6-1.4,2.5-3.5,2.6-5.6l3.8-76.7c0.1-2.3-0.7-4.5-2.3-6.1
				c-1.6-1.6-3.8-2.4-6.1-2.3l-76.7,3.8c-2.1,0.1-4.2,1-5.6,2.6l-91.8,102.9L91,6.7c-1.4-1.6-3.5-2.5-5.6-2.6L8.6,0.3
				C6.4,0.2,4.2,1.1,2.6,2.7C1,4.3,0.1,6.5,0.2,8.7l3.8,76.7c0.1,2.1,1,4.2,2.6,5.6l107,96l-26.9,29.7l-6.6-6.6
				c-3.1-3.1-8.2-3.1-11.3,0l-18.2,18.2c-3.1,3.1-3.1,8.2,0,11.3l16.9,16.9l-19.1,19l-40,40C-2.9,327-2.8,345.6,8.6,357.1
				c5.5,5.5,12.9,8.5,20.6,8.6c7.8,0,15.2-3.1,20.7-8.6l58.7-58.7l16.9,16.9c3.1,3.1,8.2,3.1,11.3,0l18.2-18.2
				c3.1-3.1,3.1-8.2,0-11.3l-6.2-7l34-30.3l34,30.3l-6.6,6.6c-3.1,3.1-3.1,8.2,0,11.3l18.2,18.2c3.1,3.1,8.2,3.1,11.3,0l16.9-16.9
				l19,19l25.8,25.8l13.9,13.9c11.4,11.6,30,11.7,41.5,0.3C368.5,345.6,368.7,327,357.3,315.5z M267.4,228l-14.1,14.1L223.3,212
				l16.6-14.8L267.4,228z M19.4,81.1l-3.2-64.6l64.6,3.2l90.9,101.6L153.1,142l-33.6-33.6c-3.4-2.9-8.4-2.5-11.3,0.9
				c-2.6,3-2.6,7.4,0,10.4l34.6,34.3l-18.4,20.7L19.4,81.1z M38.6,345.1c-2.5,2.5-5.9,3.9-9.4,3.9c-7.4-0.5-12.9-7-12.3-14.3
				c0.2-2.9,1.4-5.7,3.4-7.9l8-8l18.7,18.5L38.6,345.1z M58.1,325.5l-18.4-18.5l14.5-14.5L73,311.5L58.1,325.5z M83.9,299.7
				L65,280.8l13.8-13l18.9,18.9L83.9,299.7z M131.1,297.5l-16.8-16.8l-30.2-30.2L67.7,234l6.9-6.9l64,64L131.1,297.5z M137.1,267.1
				L123,253l133.6-133.6c3.4-2.9,3.7-7.9,0.9-11.3c-2.9-3.4-7.9-3.7-11.3-0.9c-0.3,0.3-0.6,0.6-0.9,0.9L111.8,241.7l-14.1-14.1
				l32.8-36.6L284.6,19.8l64.6-3.2l-3.2,64.6l-110.6,98.8L137.1,267.1z M194.4,237.2l17.2-14.5l30.6,30.6l-14.1,14.1L194.4,237.2z
				 M250.4,280.7l-16.2,17.3l-6.9-6.9l64-64l6.9,6.9l-16.9,16.9L250.4,280.7z M267.4,286.3l19.5-18.5l13.4,13.4l-18.9,18.9
				L267.4,286.3z M306.6,325.5l-14.5-14.5l18.9-18.9l14.5,14.5L306.6,325.5z M345.6,345.5l-0.6-0.4c-5.3,5-13.6,5-18.9,0l-8-8
				l19.3-18.3l8,8C350.5,331.9,350.6,340.2,345.6,345.5z"/>
		</g>
	</g>
</g>
<g id="Warstwa_3">
	<text transform="matrix(1 0 0 1 46.879 212.89)" class="st1 st3 st4">COMPARE</text>
</g>
</svg>
